<?xml version="1.0" encoding="UTF-8" standalone="no"?>
<svg
   version="1.0"
   width="1034.512pt"
   height="490.63065pt"
   viewBox="0 0 1034.512 490.63066"
   preserveAspectRatio="xMidYMid"
   id="svg1"
   sodipodi:docname="logo.svg"
   inkscape:version="1.3.2 (091e20ef0f, 2023-11-25, custom)"
   xmlns:inkscape="http://www.inkscape.org/namespaces/inkscape"
   xmlns:sodipodi="http://sodipodi.sourceforge.net/DTD/sodipodi-0.dtd"
   xmlns="http://www.w3.org/2000/svg"
   xmlns:svg="http://www.w3.org/2000/svg">
  <sodipodi:namedview
     id="namedview1"
     pagecolor="#ffffff"
     bordercolor="#000000"
     borderopacity="0.25"
     inkscape:showpageshadow="2"
     inkscape:pageopacity="0.0"
     inkscape:pagecheckerboard="0"
     inkscape:deskcolor="#d1d1d1"
     inkscape:document-units="pt"
     inkscape:zoom="0.82792663"
     inkscape:cx="1052.0256"
     inkscape:cy="550.16953"
     inkscape:window-width="3440"
     inkscape:window-height="1408"
     inkscape:window-x="0"
     inkscape:window-y="32"
     inkscape:window-maximized="1"
     inkscape:current-layer="svg1" />
  <defs
     id="defs1">
    <rect
       x="92.289734"
       y="524.85583"
       width="1551.425"
       height="303.16397"
       id="rect1706" />
  </defs>
  <metadata
     id="metadata1">
Created by potrace 1.15, written by Peter Selinger 2001-2017
</metadata>
  <text
     xml:space="preserve"
     id="text1704"
     style="font-size:186.667px;font-family:'Seven Segment';-inkscape-font-specification:'Seven Segment';white-space:pre;shape-inside:url(#rect1706);display:inline;fill:#75b1e1;fill-opacity:1;stroke:#75b1e1;stroke-opacity:1"
     transform="matrix(0.75,0,0,0.75,-81.44182,-52.328756)"><tspan
       x="92.289062"
       y="694.69915"
       id="tspan1">ULF_DECUP_EIN</tspan></text>
  <g
     transform="matrix(0.375,0,0,0.375,442.45478,5.625)"
     style="fill:none;fill-opacity:1;stroke:#75b1e1;stroke-width:30px;stroke-linecap:round;stroke-opacity:1"
     id="g2">
    <path
       id="s1"
       d="m 0,0 q 60,50 0,125 -60,75 0,125"
       style="fill:none;fill-opacity:1;stroke:#75b1e1;stroke-opacity:1" />
    <path
       id="s2"
       d="m 0,0 q 60,50 0,125 -60,75 0,125"
       transform="translate(180)"
       style="fill:none;fill-opacity:1;stroke:#75b1e1;stroke-opacity:1" />
    <path
       id="s3"
       d="m 0,0 q 60,50 0,125 -60,75 0,125"
       transform="translate(360)"
       style="fill:none;fill-opacity:1;stroke:#75b1e1;stroke-opacity:1" />
  </g>
  <g
     transform="matrix(0.375,0,0,0.375,359.95476,73.125004)"
     style="fill:#75b1e1;fill-opacity:1;stroke:none;stroke-opacity:1"
     id="g3">
    <path
       d="m 88.7,133.2 c 4.8,109.6 66.91,388.6 138.29,458.3 h 182.4 182.5 c 29.2,-29.1 41.5,-116.6 71.5,-192 12.2,-30.5 48.1,-167.6 54.6,-165.3 146.5,-28.2 94.4,201.9 -63.8,190.4 -19.5,37.9 -34.1,76.9 -35.2,76.1 290.3,-80.2 282.5,-287.7 115.97,-313.4 -8.8,-13.48 8.1,-41.6 3.5,-55.9 l -329.1,-0.9 z M -19.99,597.9 c 22.17,51.17 102.2,80.6 146.5,89.8 h 294.1 294.03 c 44.3,-9.19 122.1,-36.2 144.29,-87.4 l -412.1,4.7 z"
       id="path1"
       style="fill:#75b1e1;fill-opacity:1;stroke:none;stroke-opacity:1" />
  </g>
</svg>
